<?xml version="1.0" standalone="no"?>
<!DOCTYPE svg PUBLIC "-//W3C//DTD SVG 20010904//EN"
 "http://www.w3.org/TR/2001/REC-SVG-20010904/DTD/svg10.dtd">
<svg version="1.0" xmlns="http://www.w3.org/2000/svg"
 width="16.000000pt" height="16.000000pt" viewBox="0 0 16.000000 16.000000"
 preserveAspectRatio="xMidYMid meet">
<metadata>
Created by potrace 1.11, written by Peter Selinger 2001-2013
</metadata>
<g transform="translate(0.000000,16.000000) scale(0.001790,-0.001790)"
fill="#000000" stroke="none">
<path d="M1021 6213 c0 -2883 -1 -2798 44 -2990 9 -37 18 -77 20 -87 26 -122
163 -432 268 -606 45 -75 150 -232 181 -272 12 -14 32 -41 46 -59 40 -53 170
-209 219 -264 128 -141 436 -439 570 -551 19 -16 50 -43 70 -60 86 -73 328
-262 443 -346 12 -9 46 -34 75 -55 210 -154 699 -470 918 -593 22 -12 85 -48
140 -80 154 -88 402 -219 457 -242 15 -6 137 50 283 132 28 15 70 39 95 52 99
55 147 82 182 105 21 12 39 23 42 23 14 0 587 362 686 433 14 10 86 61 160
114 193 136 547 408 585 449 6 6 41 37 80 70 226 192 508 478 690 699 275 333
478 697 573 1030 19 65 25 91 37 155 3 14 7 36 10 50 3 14 8 43 12 65 4 22 9
1281 10 2798 l3 2757 -3450 0 -3450 0 1 -2727z"/>
</g>
</svg>
